<?xml version="1.0" standalone="no"?>
<!DOCTYPE svg PUBLIC "-//W3C//DTD SVG 20010904//EN"
 "http://www.w3.org/TR/2001/REC-SVG-20010904/DTD/svg10.dtd">
<svg version="1.0" xmlns="http://www.w3.org/2000/svg"
 width="372.000000pt" height="372.000000pt" viewBox="0 0 372.000000 372.000000"
 preserveAspectRatio="xMidYMid meet">
<metadata>
Created by potrace 1.11, written by Peter Selinger 2001-2013
</metadata>
<g transform="translate(0.000000,372.000000) scale(0.100000,-0.100000)"
fill="#000000" stroke="none">
<path d="M2047 3423 c-10 -48 -29 -137 -42 -198 -14 -60 -25 -119 -25 -130 0
-11 -11 -69 -24 -130 -14 -60 -35 -155 -47 -210 -12 -55 -25 -106 -29 -114 -5
-9 -22 8 -56 59 -27 40 -59 85 -71 100 -13 15 -23 32 -23 38 0 5 -7 15 -15 22
-8 7 -38 47 -67 89 -29 42 -66 96 -82 120 -17 24 -38 53 -46 66 -15 24 -100
146 -154 223 -17 24 -36 54 -43 66 -7 12 -21 31 -33 41 -18 17 -20 17 -20 1 0
-9 11 -56 24 -104 13 -48 29 -107 35 -132 14 -59 38 -154 66 -265 26 -100 50
-197 66 -265 6 -25 22 -85 35 -134 14 -48 23 -90 21 -93 -4 -4 -255 95 -610
241 -169 70 -174 69 -92 -19 26 -27 70 -77 98 -110 29 -33 63 -71 77 -85 14
-14 70 -77 125 -140 55 -63 112 -127 128 -143 59 -62 138 -160 133 -165 -3 -3
-65 -15 -138 -28 -811 -139 -1075 -185 -1083 -188 -21 -9 58 -5 618 30 318 20
581 33 584 30 3 -3 -4 -17 -16 -32 -11 -15 -21 -31 -21 -36 0 -5 -11 -24 -25
-42 -14 -18 -25 -37 -25 -41 0 -4 -11 -23 -25 -41 -14 -18 -25 -35 -25 -38 0
-4 -77 -134 -110 -186 -39 -63 -100 -163 -100 -167 0 -2 -11 -19 -25 -37 -14
-18 -25 -37 -25 -41 0 -4 -10 -22 -23 -39 -12 -17 -28 -42 -36 -56 -24 -48
-46 -85 -69 -117 -12 -17 -22 -34 -22 -39 0 -4 -12 -22 -26 -41 -54 -72 -63
-76 465 239 190 113 348 205 349 203 2 -2 -3 -50 -12 -107 -8 -57 -26 -179
-40 -273 -61 -423 -79 -540 -102 -681 -13 -83 -24 -164 -23 -180 0 -26 2 -25
24 21 31 67 68 155 100 240 15 39 38 96 51 128 13 31 36 85 50 120 14 34 39
90 55 125 16 34 29 69 29 77 0 8 11 38 24 67 13 29 36 82 51 118 15 36 38 89
51 118 13 29 24 58 24 65 0 6 13 40 29 75 l28 63 28 -63 c32 -73 104 -229 141
-308 15 -30 38 -80 51 -110 54 -117 72 -156 82 -180 l11 -25 -5 28 c-3 15 -8
48 -11 75 -5 49 -38 245 -79 473 -27 146 -31 199 -15 199 6 0 45 -20 88 -44
42 -23 116 -64 164 -89 47 -25 101 -55 120 -65 18 -10 62 -35 98 -54 36 -19
81 -44 100 -55 20 -11 71 -39 115 -63 44 -23 109 -59 145 -78 41 -23 60 -29
50 -18 -8 10 -19 26 -25 36 -5 10 -41 65 -80 122 -38 56 -74 111 -80 120 -5 9
-29 44 -52 78 -24 34 -43 64 -43 67 0 3 -9 16 -20 30 -11 15 -19 28 -16 30 2
2 75 -17 162 -42 88 -25 261 -74 387 -110 125 -36 233 -65 239 -65 7 0 1 8
-12 17 -24 17 -36 27 -80 63 -9 8 -32 26 -51 40 -18 14 -121 95 -229 180 -108
85 -212 166 -230 180 -18 14 -40 32 -50 40 -10 8 -32 26 -51 40 -18 14 -87 67
-152 119 l-120 95 49 22 c27 13 103 48 168 79 65 31 140 65 165 77 69 31 281
130 426 199 l60 29 -45 -7 c-25 -3 -237 -39 -472 -78 -236 -40 -428 -69 -428
-65 0 3 4 10 9 15 5 6 57 114 114 241 58 127 109 240 114 250 6 11 22 46 37
79 30 66 62 136 102 223 15 31 38 82 52 112 14 30 31 69 40 85 8 17 27 58 43
93 l28 62 -42 -32 c-23 -18 -46 -37 -53 -43 -6 -5 -23 -19 -38 -30 -15 -11
-139 -108 -276 -215 -136 -107 -319 -251 -405 -319 l-158 -123 7 58 c4 33 11
140 16 239 5 99 16 256 25 348 9 93 15 173 13 178 -2 5 -11 -30 -21 -78z"/>
<path d="M98 1823 c7 -3 16 -2 19 1 4 3 -2 6 -13 5 -11 0 -14 -3 -6 -6z"/>
</g>
</svg>
